<svg xmlns="http://www.w3.org/2000/svg" xmlns:xlink="http://www.w3.org/1999/xlink" width="450" zoomAndPan="magnify" viewBox="0 0 204 42" height="autoo" preserveAspectRatio="xMidYMid meet" version="1.0"><defs><g/><clipPath id="70129686ed"><path d="M 4 1 L 49 1 L 49 40 L 4 40 Z M 4 1 " clip-rule="nonzero"/></clipPath><clipPath id="5ac210d8af"><path d="M 32.710938 3.6875 C 41.960938 5.273438 48.144531 14.011719 46.558594 23.261719 C 45.027344 32.515625 36.234375 38.699219 27.035156 37.113281 C 21.3125 36.195312 16.8125 32.464844 14.515625 27.660156 C 17.121094 25.460938 20.597656 22.957031 25.042969 20.195312 L 25.453125 21.167969 C 25.503906 21.167969 25.554688 21.21875 25.605469 21.167969 L 26.117188 20.964844 L 26.21875 21.167969 C 26.21875 21.21875 26.21875 21.21875 26.269531 21.21875 C 26.574219 21.21875 26.832031 21.21875 27.136719 21.21875 C 27.394531 21.167969 27.597656 21.117188 27.855469 21.066406 L 27.648438 23.367188 C 27.648438 23.417969 27.699219 23.46875 27.75 23.46875 L 30.410156 22.242188 C 30.410156 22.242188 30.410156 22.242188 30.460938 22.191406 L 31.226562 20.042969 C 33.527344 19.125 35.417969 18.101562 37.003906 16.925781 C 38.585938 15.800781 39.8125 14.472656 40.683594 13.042969 C 40.683594 13.042969 40.683594 12.988281 40.632812 12.9375 C 38.945312 12.683594 37.207031 12.785156 35.265625 13.195312 C 33.375 13.65625 31.328125 14.472656 29.183594 15.597656 L 27.035156 14.777344 C 26.984375 14.777344 26.984375 14.777344 26.933594 14.777344 L 24.328125 16.003906 C 24.277344 16.003906 24.277344 16.058594 24.277344 16.109375 L 24.328125 16.160156 L 26.21875 17.488281 C 26.015625 17.589844 25.808594 17.792969 25.605469 17.949219 C 25.402344 18.152344 25.246094 18.355469 25.042969 18.613281 L 25.042969 18.664062 L 25.144531 18.917969 L 24.632812 19.125 C 24.582031 19.175781 24.582031 19.226562 24.582031 19.226562 L 25.042969 20.195312 C 20.441406 21.933594 16.710938 23.773438 13.695312 25.613281 C 12.878906 23.109375 12.675781 20.351562 13.132812 17.589844 C 14.71875 8.339844 23.457031 2.105469 32.710938 3.6875 Z M 35.164062 14.675781 C 35.621094 14.726562 35.980469 15.238281 35.878906 15.75 C 35.828125 16.210938 35.316406 16.566406 34.855469 16.464844 C 34.34375 16.414062 33.988281 15.902344 34.089844 15.441406 C 34.191406 14.933594 34.652344 14.574219 35.164062 14.675781 Z M 12.980469 28.988281 C 15.640625 34.148438 20.546875 38.035156 26.679688 39.054688 C 37.003906 40.792969 46.765625 33.894531 48.503906 23.570312 C 50.238281 13.296875 43.339844 3.535156 33.015625 1.746094 C 22.742188 0.0078125 12.980469 6.960938 11.191406 17.230469 C 10.628906 20.503906 10.988281 23.773438 12.011719 26.6875 C -0.613281 35.222656 3.527344 43.042969 20.085938 37.828125 C 8.226562 39.3125 5.621094 35.835938 12.980469 28.988281 Z M 12.980469 28.988281 " clip-rule="nonzero"/></clipPath><linearGradient x1="358.00201" gradientTransform="matrix(0.051335, 0, 0, -0.051335, 8.321687, 146.019369)" y1="2045.314211" x2="358.00201" gradientUnits="userSpaceOnUse" y2="2830.173118" id="6ad1cb9cca"><stop stop-opacity="1" stop-color="rgb(0%, 28.999329%, 67.799377%)" offset="0"/><stop stop-opacity="1" stop-color="rgb(0%, 28.999329%, 67.799377%)" offset="0.03125"/><stop stop-opacity="1" stop-color="rgb(0%, 28.999329%, 67.799377%)" offset="0.0390625"/><stop stop-opacity="1" stop-color="rgb(0%, 29.225159%, 67.904663%)" offset="0.0429688"/><stop stop-opacity="1" stop-color="rgb(0%, 29.452515%, 68.009949%)" offset="0.046875"/><stop stop-opacity="1" stop-color="rgb(0%, 29.837036%, 68.188477%)" offset="0.0507812"/><stop stop-opacity="1" stop-color="rgb(0%, 30.221558%, 68.367004%)" offset="0.0546875"/><stop stop-opacity="1" stop-color="rgb(0%, 30.606079%, 68.545532%)" offset="0.0585938"/><stop stop-opacity="1" stop-color="rgb(0%, 30.992126%, 68.72406%)" offset="0.0625"/><stop stop-opacity="1" stop-color="rgb(0%, 31.376648%, 68.902588%)" offset="0.0664062"/><stop stop-opacity="1" stop-color="rgb(0%, 31.761169%, 69.081116%)" offset="0.0703125"/><stop stop-opacity="1" stop-color="rgb(0%, 32.145691%, 69.259644%)" offset="0.0742188"/><stop stop-opacity="1" stop-color="rgb(0%, 32.530212%, 69.438171%)" offset="0.078125"/><stop stop-opacity="1" stop-color="rgb(0%, 32.914734%, 69.615173%)" offset="0.0820313"/><stop stop-opacity="1" stop-color="rgb(0%, 33.299255%, 69.793701%)" offset="0.0859375"/><stop stop-opacity="1" stop-color="rgb(0%, 33.683777%, 69.972229%)" offset="0.0898438"/><stop stop-opacity="1" stop-color="rgb(0%, 34.068298%, 70.150757%)" offset="0.09375"/><stop stop-opacity="1" stop-color="rgb(0%, 34.45282%, 70.329285%)" offset="0.0976563"/><stop stop-opacity="1" stop-color="rgb(0%, 34.837341%, 70.507812%)" offset="0.101563"/><stop stop-opacity="1" stop-color="rgb(0%, 35.221863%, 70.68634%)" offset="0.105469"/><stop stop-opacity="1" stop-color="rgb(0%, 35.606384%, 70.864868%)" offset="0.109375"/><stop stop-opacity="1" stop-color="rgb(0%, 35.990906%, 71.043396%)" offset="0.113281"/><stop stop-opacity="1" stop-color="rgb(0%, 36.376953%, 71.221924%)" offset="0.117188"/><stop stop-opacity="1" stop-color="rgb(0%, 36.761475%, 71.400452%)" offset="0.121094"/><stop stop-opacity="1" stop-color="rgb(0%, 37.145996%, 71.578979%)" offset="0.125"/><stop stop-opacity="1" stop-color="rgb(0%, 37.530518%, 71.757507%)" offset="0.128906"/><stop stop-opacity="1" stop-color="rgb(0%, 37.915039%, 71.936035%)" offset="0.132812"/><stop stop-opacity="1" stop-color="rgb(0%, 38.299561%, 72.114563%)" offset="0.136719"/><stop stop-opacity="1" stop-color="rgb(0%, 38.684082%, 72.293091%)" offset="0.140625"/><stop stop-opacity="1" stop-color="rgb(0%, 39.068604%, 72.471619%)" offset="0.144531"/><stop stop-opacity="1" stop-color="rgb(0%, 39.453125%, 72.650146%)" offset="0.148438"/><stop stop-opacity="1" stop-color="rgb(0%, 39.837646%, 72.828674%)" offset="0.152344"/><stop stop-opacity="1" stop-color="rgb(0%, 40.222168%, 73.007202%)" offset="0.15625"/><stop stop-opacity="1" stop-color="rgb(0%, 40.606689%, 73.18573%)" offset="0.160156"/><stop stop-opacity="1" stop-color="rgb(0%, 40.991211%, 73.364258%)" offset="0.164063"/><stop stop-opacity="1" stop-color="rgb(0%, 41.375732%, 73.54126%)" offset="0.167969"/><stop stop-opacity="1" stop-color="rgb(0%, 41.76178%, 73.719788%)" offset="0.171875"/><stop stop-opacity="1" stop-color="rgb(0%, 42.146301%, 73.898315%)" offset="0.175781"/><stop stop-opacity="1" stop-color="rgb(0%, 42.530823%, 74.076843%)" offset="0.179688"/><stop stop-opacity="1" stop-color="rgb(0%, 42.915344%, 74.255371%)" offset="0.183594"/><stop stop-opacity="1" stop-color="rgb(0%, 43.299866%, 74.433899%)" offset="0.1875"/><stop stop-opacity="1" stop-color="rgb(0%, 43.684387%, 74.612427%)" offset="0.191406"/><stop stop-opacity="1" stop-color="rgb(0%, 44.068909%, 74.790955%)" offset="0.195313"/><stop stop-opacity="1" stop-color="rgb(0%, 44.45343%, 74.969482%)" offset="0.199219"/><stop stop-opacity="1" stop-color="rgb(0%, 44.837952%, 75.14801%)" offset="0.203125"/><stop stop-opacity="1" stop-color="rgb(0%, 45.222473%, 75.326538%)" offset="0.207031"/><stop stop-opacity="1" stop-color="rgb(0%, 45.606995%, 75.505066%)" offset="0.210938"/><stop stop-opacity="1" stop-color="rgb(0%, 45.991516%, 75.683594%)" offset="0.214844"/><stop stop-opacity="1" stop-color="rgb(0%, 46.376038%, 75.862122%)" offset="0.21875"/><stop stop-opacity="1" stop-color="rgb(0%, 46.760559%, 76.040649%)" offset="0.222656"/><stop stop-opacity="1" stop-color="rgb(0%, 47.146606%, 76.219177%)" offset="0.226563"/><stop stop-opacity="1" stop-color="rgb(0%, 47.531128%, 76.397705%)" offset="0.230469"/><stop stop-opacity="1" stop-color="rgb(0%, 47.915649%, 76.576233%)" offset="0.234375"/><stop stop-opacity="1" stop-color="rgb(0%, 48.300171%, 76.754761%)" offset="0.238281"/><stop stop-opacity="1" stop-color="rgb(0%, 48.684692%, 76.933289%)" offset="0.242188"/><stop stop-opacity="1" stop-color="rgb(0%, 49.069214%, 77.111816%)" offset="0.246094"/><stop stop-opacity="1" stop-color="rgb(0%, 49.453735%, 77.290344%)" offset="0.25"/><stop stop-opacity="1" stop-color="rgb(0%, 49.838257%, 77.467346%)" offset="0.253906"/><stop stop-opacity="1" stop-color="rgb(0%, 50.222778%, 77.645874%)" offset="0.257812"/><stop stop-opacity="1" stop-color="rgb(0%, 50.6073%, 77.824402%)" offset="0.261719"/><stop stop-opacity="1" stop-color="rgb(0%, 50.991821%, 78.00293%)" offset="0.265625"/><stop stop-opacity="1" stop-color="rgb(0%, 51.376343%, 78.181458%)" offset="0.269531"/><stop stop-opacity="1" stop-color="rgb(0%, 51.760864%, 78.359985%)" offset="0.273438"/><stop stop-opacity="1" stop-color="rgb(0%, 52.145386%, 78.538513%)" offset="0.277344"/><stop stop-opacity="1" stop-color="rgb(0%, 52.529907%, 78.717041%)" offset="0.28125"/><stop stop-opacity="1" stop-color="rgb(0%, 52.914429%, 78.895569%)" offset="0.285156"/><stop stop-opacity="1" stop-color="rgb(0%, 53.300476%, 79.074097%)" offset="0.289062"/><stop stop-opacity="1" stop-color="rgb(0%, 53.684998%, 79.252625%)" offset="0.292969"/><stop stop-opacity="1" stop-color="rgb(0%, 54.069519%, 79.431152%)" offset="0.296875"/><stop stop-opacity="1" stop-color="rgb(0%, 54.454041%, 79.60968%)" offset="0.300781"/><stop stop-opacity="1" stop-color="rgb(0%, 54.838562%, 79.788208%)" offset="0.304688"/><stop stop-opacity="1" stop-color="rgb(0%, 55.223083%, 79.966736%)" offset="0.308594"/><stop stop-opacity="1" stop-color="rgb(0%, 55.607605%, 80.145264%)" offset="0.3125"/><stop stop-opacity="1" stop-color="rgb(0%, 55.992126%, 80.323792%)" offset="0.316406"/><stop stop-opacity="1" stop-color="rgb(0%, 56.376648%, 80.502319%)" offset="0.320313"/><stop stop-opacity="1" stop-color="rgb(0%, 56.761169%, 80.680847%)" offset="0.324219"/><stop stop-opacity="1" stop-color="rgb(0%, 57.145691%, 80.859375%)" offset="0.328125"/><stop stop-opacity="1" stop-color="rgb(0%, 57.530212%, 81.037903%)" offset="0.332031"/><stop stop-opacity="1" stop-color="rgb(0%, 57.914734%, 81.216431%)" offset="0.335938"/><stop stop-opacity="1" stop-color="rgb(0%, 58.299255%, 81.393433%)" offset="0.339844"/><stop stop-opacity="1" stop-color="rgb(0%, 58.685303%, 81.57196%)" offset="0.34375"/><stop stop-opacity="1" stop-color="rgb(0%, 59.069824%, 81.750488%)" offset="0.347656"/><stop stop-opacity="1" stop-color="rgb(0%, 59.454346%, 81.929016%)" offset="0.351563"/><stop stop-opacity="1" stop-color="rgb(0%, 59.838867%, 82.107544%)" offset="0.355469"/><stop stop-opacity="1" stop-color="rgb(0%, 60.223389%, 82.286072%)" offset="0.359375"/><stop stop-opacity="1" stop-color="rgb(0%, 60.60791%, 82.4646%)" offset="0.363281"/><stop stop-opacity="1" stop-color="rgb(0%, 60.992432%, 82.643127%)" offset="0.367188"/><stop stop-opacity="1" stop-color="rgb(0%, 61.376953%, 82.821655%)" offset="0.371094"/><stop stop-opacity="1" stop-color="rgb(0%, 61.761475%, 83.000183%)" offset="0.375"/><stop stop-opacity="1" stop-color="rgb(0%, 62.145996%, 83.178711%)" offset="0.378906"/><stop stop-opacity="1" stop-color="rgb(0%, 62.530518%, 83.357239%)" offset="0.382813"/><stop stop-opacity="1" stop-color="rgb(0%, 62.915039%, 83.535767%)" offset="0.386719"/><stop stop-opacity="1" stop-color="rgb(0%, 63.299561%, 83.714294%)" offset="0.390625"/><stop stop-opacity="1" stop-color="rgb(0%, 63.684082%, 83.892822%)" offset="0.394531"/><stop stop-opacity="1" stop-color="rgb(0%, 64.070129%, 84.07135%)" offset="0.398438"/><stop stop-opacity="1" stop-color="rgb(0%, 64.454651%, 84.249878%)" offset="0.402344"/><stop stop-opacity="1" stop-color="rgb(0%, 64.839172%, 84.428406%)" offset="0.40625"/><stop stop-opacity="1" stop-color="rgb(0%, 65.223694%, 84.606934%)" offset="0.410156"/><stop stop-opacity="1" stop-color="rgb(0%, 65.608215%, 84.785461%)" offset="0.414062"/><stop stop-opacity="1" stop-color="rgb(0%, 65.992737%, 84.963989%)" offset="0.417969"/><stop stop-opacity="1" stop-color="rgb(0%, 66.377258%, 85.142517%)" offset="0.421875"/><stop stop-opacity="1" stop-color="rgb(0%, 66.76178%, 85.319519%)" offset="0.425781"/><stop stop-opacity="1" stop-color="rgb(0%, 67.146301%, 85.498047%)" offset="0.429688"/><stop stop-opacity="1" stop-color="rgb(0%, 67.530823%, 85.676575%)" offset="0.433594"/><stop stop-opacity="1" stop-color="rgb(0%, 67.915344%, 85.855103%)" offset="0.4375"/><stop stop-opacity="1" stop-color="rgb(0%, 68.299866%, 86.03363%)" offset="0.441406"/><stop stop-opacity="1" stop-color="rgb(0%, 68.684387%, 86.212158%)" offset="0.445313"/><stop stop-opacity="1" stop-color="rgb(0%, 69.068909%, 86.390686%)" offset="0.449219"/><stop stop-opacity="1" stop-color="rgb(0%, 69.454956%, 86.569214%)" offset="0.453125"/><stop stop-opacity="1" stop-color="rgb(0%, 69.839478%, 86.747742%)" offset="0.457031"/><stop stop-opacity="1" stop-color="rgb(0%, 70.223999%, 86.92627%)" offset="0.460938"/><stop stop-opacity="1" stop-color="rgb(0%, 70.608521%, 87.104797%)" offset="0.464844"/><stop stop-opacity="1" stop-color="rgb(0%, 70.993042%, 87.283325%)" offset="0.46875"/><stop stop-opacity="1" stop-color="rgb(0%, 71.377563%, 87.461853%)" offset="0.472656"/><stop stop-opacity="1" stop-color="rgb(0%, 71.762085%, 87.640381%)" offset="0.476563"/><stop stop-opacity="1" stop-color="rgb(0%, 72.146606%, 87.818909%)" offset="0.480469"/><stop stop-opacity="1" stop-color="rgb(0%, 72.531128%, 87.997437%)" offset="0.484375"/><stop stop-opacity="1" stop-color="rgb(0%, 72.915649%, 88.175964%)" offset="0.488281"/><stop stop-opacity="1" stop-color="rgb(0%, 73.300171%, 88.354492%)" offset="0.492188"/><stop stop-opacity="1" stop-color="rgb(0%, 73.684692%, 88.53302%)" offset="0.496094"/><stop stop-opacity="1" stop-color="rgb(0%, 74.069214%, 88.711548%)" offset="0.5"/><stop stop-opacity="1" stop-color="rgb(0%, 74.453735%, 88.890076%)" offset="0.503906"/><stop stop-opacity="1" stop-color="rgb(0%, 74.839783%, 89.068604%)" offset="0.507813"/><stop stop-opacity="1" stop-color="rgb(0%, 75.224304%, 89.245605%)" offset="0.511719"/><stop stop-opacity="1" stop-color="rgb(0%, 75.608826%, 89.424133%)" offset="0.515625"/><stop stop-opacity="1" stop-color="rgb(0%, 75.993347%, 89.602661%)" offset="0.519531"/><stop stop-opacity="1" stop-color="rgb(0%, 76.377869%, 89.781189%)" offset="0.523438"/><stop stop-opacity="1" stop-color="rgb(0%, 76.76239%, 89.959717%)" offset="0.527344"/><stop stop-opacity="1" stop-color="rgb(0%, 77.146912%, 90.138245%)" offset="0.53125"/><stop stop-opacity="1" stop-color="rgb(0%, 77.531433%, 90.316772%)" offset="0.535156"/><stop stop-opacity="1" stop-color="rgb(0%, 77.915955%, 90.4953%)" offset="0.539063"/><stop stop-opacity="1" stop-color="rgb(0%, 78.300476%, 90.673828%)" offset="0.542969"/><stop stop-opacity="1" stop-color="rgb(0%, 78.684998%, 90.852356%)" offset="0.546875"/><stop stop-opacity="1" stop-color="rgb(0%, 79.069519%, 91.030884%)" offset="0.550781"/><stop stop-opacity="1" stop-color="rgb(0%, 79.454041%, 91.209412%)" offset="0.554688"/><stop stop-opacity="1" stop-color="rgb(0%, 79.838562%, 91.387939%)" offset="0.558594"/><stop stop-opacity="1" stop-color="rgb(0%, 80.224609%, 91.566467%)" offset="0.5625"/><stop stop-opacity="1" stop-color="rgb(0%, 80.609131%, 91.744995%)" offset="0.566406"/><stop stop-opacity="1" stop-color="rgb(0%, 80.993652%, 91.923523%)" offset="0.570313"/><stop stop-opacity="1" stop-color="rgb(0%, 81.378174%, 92.102051%)" offset="0.574219"/><stop stop-opacity="1" stop-color="rgb(0%, 81.762695%, 92.280579%)" offset="0.578125"/><stop stop-opacity="1" stop-color="rgb(0%, 82.147217%, 92.459106%)" offset="0.582031"/><stop stop-opacity="1" stop-color="rgb(0%, 82.531738%, 92.637634%)" offset="0.585938"/><stop stop-opacity="1" stop-color="rgb(0%, 82.91626%, 92.816162%)" offset="0.589844"/><stop stop-opacity="1" stop-color="rgb(0%, 83.300781%, 92.99469%)" offset="0.59375"/><stop stop-opacity="1" stop-color="rgb(0%, 83.685303%, 93.171692%)" offset="0.597656"/><stop stop-opacity="1" stop-color="rgb(0%, 84.069824%, 93.35022%)" offset="0.601563"/><stop stop-opacity="1" stop-color="rgb(0%, 84.454346%, 93.528748%)" offset="0.605469"/><stop stop-opacity="1" stop-color="rgb(0%, 84.838867%, 93.707275%)" offset="0.609375"/><stop stop-opacity="1" stop-color="rgb(0%, 85.223389%, 93.885803%)" offset="0.613281"/><stop stop-opacity="1" stop-color="rgb(0%, 85.609436%, 94.064331%)" offset="0.617188"/><stop stop-opacity="1" stop-color="rgb(0%, 85.993958%, 94.242859%)" offset="0.621094"/><stop stop-opacity="1" stop-color="rgb(0%, 86.378479%, 94.421387%)" offset="0.625"/><stop stop-opacity="1" stop-color="rgb(0%, 86.763%, 94.599915%)" offset="0.628906"/><stop stop-opacity="1" stop-color="rgb(0%, 87.147522%, 94.778442%)" offset="0.632812"/><stop stop-opacity="1" stop-color="rgb(0%, 87.532043%, 94.95697%)" offset="0.636719"/><stop stop-opacity="1" stop-color="rgb(0%, 87.916565%, 95.135498%)" offset="0.640625"/><stop stop-opacity="1" stop-color="rgb(0%, 88.301086%, 95.314026%)" offset="0.644531"/><stop stop-opacity="1" stop-color="rgb(0%, 88.685608%, 95.492554%)" offset="0.648438"/><stop stop-opacity="1" stop-color="rgb(0%, 89.070129%, 95.671082%)" offset="0.652344"/><stop stop-opacity="1" stop-color="rgb(0%, 89.454651%, 95.849609%)" offset="0.65625"/><stop stop-opacity="1" stop-color="rgb(0%, 89.839172%, 96.028137%)" offset="0.660156"/><stop stop-opacity="1" stop-color="rgb(0%, 90.223694%, 96.206665%)" offset="0.664062"/><stop stop-opacity="1" stop-color="rgb(0%, 90.608215%, 96.385193%)" offset="0.667969"/><stop stop-opacity="1" stop-color="rgb(0%, 90.992737%, 96.563721%)" offset="0.671875"/><stop stop-opacity="1" stop-color="rgb(0%, 91.377258%, 96.742249%)" offset="0.675781"/><stop stop-opacity="1" stop-color="rgb(0%, 91.763306%, 96.920776%)" offset="0.679688"/><stop stop-opacity="1" stop-color="rgb(0%, 92.147827%, 97.097778%)" offset="0.683594"/><stop stop-opacity="1" stop-color="rgb(0%, 92.532349%, 97.276306%)" offset="0.6875"/><stop stop-opacity="1" stop-color="rgb(0%, 92.91687%, 97.454834%)" offset="0.691406"/><stop stop-opacity="1" stop-color="rgb(0%, 93.301392%, 97.633362%)" offset="0.695312"/><stop stop-opacity="1" stop-color="rgb(0%, 93.685913%, 97.81189%)" offset="0.699219"/><stop stop-opacity="1" stop-color="rgb(0%, 94.070435%, 97.990417%)" offset="0.703125"/><stop stop-opacity="1" stop-color="rgb(0%, 94.454956%, 98.168945%)" offset="0.707031"/><stop stop-opacity="1" stop-color="rgb(0%, 94.839478%, 98.347473%)" offset="0.710938"/><stop stop-opacity="1" stop-color="rgb(0%, 95.223999%, 98.526001%)" offset="0.714844"/><stop stop-opacity="1" stop-color="rgb(0%, 95.608521%, 98.704529%)" offset="0.71875"/><stop stop-opacity="1" stop-color="rgb(0%, 95.993042%, 98.883057%)" offset="0.722656"/><stop stop-opacity="1" stop-color="rgb(0%, 96.377563%, 99.061584%)" offset="0.726562"/><stop stop-opacity="1" stop-color="rgb(0%, 96.762085%, 99.240112%)" offset="0.730469"/><stop stop-opacity="1" stop-color="rgb(0%, 97.148132%, 99.41864%)" offset="0.734375"/><stop stop-opacity="1" stop-color="rgb(0%, 97.532654%, 99.597168%)" offset="0.738281"/><stop stop-opacity="1" stop-color="rgb(0%, 97.917175%, 99.775696%)" offset="0.742188"/><stop stop-opacity="1" stop-color="rgb(0%, 98.158264%, 99.887085%)" offset="0.746094"/><stop stop-opacity="1" stop-color="rgb(0%, 98.399353%, 100%)" offset="0.75"/><stop stop-opacity="1" stop-color="rgb(0%, 98.399353%, 100%)" offset="1"/></linearGradient><clipPath id="e7797610bb"><path d="M 18 11 L 22 11 L 22 16 L 18 16 Z M 18 11 " clip-rule="nonzero"/></clipPath><clipPath id="96524c0874"><path d="M 18.246094 13.246094 C 18.652344 13.398438 19.0625 13.65625 19.320312 14.0625 C 19.625 14.421875 19.726562 14.882812 19.726562 15.339844 C 19.878906 14.933594 20.136719 14.523438 20.546875 14.269531 C 20.902344 14.011719 21.363281 13.859375 21.824219 13.859375 C 21.414062 13.757812 21.003906 13.449219 20.75 13.09375 C 20.441406 12.683594 20.339844 12.222656 20.339844 11.761719 C 20.1875 12.222656 19.933594 12.582031 19.523438 12.886719 C 19.164062 13.144531 18.707031 13.296875 18.246094 13.246094 Z M 18.246094 13.246094 " clip-rule="nonzero"/></clipPath><linearGradient x1="228.159" gradientTransform="matrix(0.051335, 0, 0, -0.051335, 8.321687, 146.019369)" y1="2545.600042" x2="228.159" gradientUnits="userSpaceOnUse" y2="2615.293895" id="ba04d24325"><stop stop-opacity="1" stop-color="rgb(0%, 92.437744%, 97.233582%)" offset="0"/><stop stop-opacity="1" stop-color="rgb(0%, 92.573547%, 97.296143%)" offset="0.03125"/><stop stop-opacity="1" stop-color="rgb(0%, 92.84668%, 97.422791%)" offset="0.0625"/><stop stop-opacity="1" stop-color="rgb(0%, 93.119812%, 97.549438%)" offset="0.09375"/><stop stop-opacity="1" stop-color="rgb(0%, 93.392944%, 97.676086%)" offset="0.125"/><stop stop-opacity="1" stop-color="rgb(0%, 93.666077%, 97.802734%)" offset="0.15625"/><stop stop-opacity="1" stop-color="rgb(0%, 93.939209%, 97.929382%)" offset="0.1875"/><stop stop-opacity="1" stop-color="rgb(0%, 94.213867%, 98.05603%)" offset="0.21875"/><stop stop-opacity="1" stop-color="rgb(0%, 94.487%, 98.182678%)" offset="0.25"/><stop stop-opacity="1" stop-color="rgb(0%, 94.760132%, 98.310852%)" offset="0.28125"/><stop stop-opacity="1" stop-color="rgb(0%, 95.033264%, 98.4375%)" offset="0.3125"/><stop stop-opacity="1" stop-color="rgb(0%, 95.306396%, 98.564148%)" offset="0.34375"/><stop stop-opacity="1" stop-color="rgb(0%, 95.579529%, 98.690796%)" offset="0.375"/><stop stop-opacity="1" stop-color="rgb(0%, 95.852661%, 98.817444%)" offset="0.40625"/><stop stop-opacity="1" stop-color="rgb(0%, 96.125793%, 98.944092%)" offset="0.4375"/><stop stop-opacity="1" stop-color="rgb(0%, 96.398926%, 99.07074%)" offset="0.46875"/><stop stop-opacity="1" stop-color="rgb(0%, 96.672058%, 99.197388%)" offset="0.5"/><stop stop-opacity="1" stop-color="rgb(0%, 96.94519%, 99.324036%)" offset="0.53125"/><stop stop-opacity="1" stop-color="rgb(0%, 97.218323%, 99.450684%)" offset="0.5625"/><stop stop-opacity="1" stop-color="rgb(0%, 97.491455%, 99.577332%)" offset="0.59375"/><stop stop-opacity="1" stop-color="rgb(0%, 97.764587%, 99.703979%)" offset="0.625"/><stop stop-opacity="1" stop-color="rgb(0%, 98.03772%, 99.832153%)" offset="0.65625"/><stop stop-opacity="1" stop-color="rgb(0%, 98.286438%, 99.94812%)" offset="0.6875"/><stop stop-opacity="1" stop-color="rgb(0%, 98.399353%, 100%)" offset="0.75"/><stop stop-opacity="1" stop-color="rgb(0%, 98.399353%, 100%)" offset="1"/></linearGradient><clipPath id="905cac1e6d"><path d="M 27 5 L 31 5 L 31 8 L 27 8 Z M 27 5 " clip-rule="nonzero"/></clipPath><clipPath id="f623e8a0f8"><path d="M 27.546875 6.242188 C 27.90625 6.347656 28.261719 6.601562 28.46875 6.90625 C 28.671875 7.214844 28.824219 7.574219 28.773438 7.980469 C 28.875 7.625 29.132812 7.265625 29.4375 7.0625 C 29.746094 6.855469 30.152344 6.753906 30.511719 6.753906 C 30.152344 6.652344 29.847656 6.398438 29.589844 6.089844 C 29.386719 5.785156 29.285156 5.375 29.285156 5.015625 C 29.183594 5.375 28.925781 5.679688 28.621094 5.9375 C 28.3125 6.140625 27.957031 6.242188 27.546875 6.242188 Z M 27.546875 6.242188 " clip-rule="nonzero"/></clipPath><clipPath id="73ba3bac2f"><path d="M 25 10 L 29 10 L 29 13 L 25 13 Z M 25 10 " clip-rule="nonzero"/></clipPath><clipPath id="d8e8aed411"><path d="M 25.808594 11.558594 C 26.117188 11.660156 26.371094 11.867188 26.578125 12.121094 C 26.78125 12.375 26.832031 12.683594 26.832031 12.988281 C 26.933594 12.683594 27.136719 12.429688 27.394531 12.273438 C 27.648438 12.070312 27.957031 11.96875 28.261719 11.96875 C 27.957031 11.917969 27.699219 11.710938 27.546875 11.457031 C 27.34375 11.203125 27.242188 10.84375 27.242188 10.535156 C 27.191406 10.84375 26.984375 11.097656 26.730469 11.304688 C 26.472656 11.507812 26.117188 11.558594 25.808594 11.558594 Z M 25.808594 11.558594 " clip-rule="nonzero"/></clipPath><linearGradient x1="364.55701" gradientTransform="matrix(0.051335, 0, 0, -0.051335, 8.321687, 146.019369)" y1="2591.398104" x2="364.55701" gradientUnits="userSpaceOnUse" y2="2639.187926" id="f978e72d79"><stop stop-opacity="1" stop-color="rgb(0%, 92.947388%, 97.470093%)" offset="0"/><stop stop-opacity="1" stop-color="rgb(0%, 93.135071%, 97.557068%)" offset="0.0625"/><stop stop-opacity="1" stop-color="rgb(0%, 93.510437%, 97.731018%)" offset="0.125"/><stop stop-opacity="1" stop-color="rgb(0%, 93.884277%, 97.904968%)" offset="0.1875"/><stop stop-opacity="1" stop-color="rgb(0%, 94.259644%, 98.078918%)" offset="0.25"/><stop stop-opacity="1" stop-color="rgb(0%, 94.633484%, 98.252869%)" offset="0.3125"/><stop stop-opacity="1" stop-color="rgb(0%, 95.00885%, 98.426819%)" offset="0.375"/><stop stop-opacity="1" stop-color="rgb(0%, 95.384216%, 98.600769%)" offset="0.4375"/><stop stop-opacity="1" stop-color="rgb(0%, 95.758057%, 98.774719%)" offset="0.5"/><stop stop-opacity="1" stop-color="rgb(0%, 96.133423%, 98.947144%)" offset="0.5625"/><stop stop-opacity="1" stop-color="rgb(0%, 96.507263%, 99.121094%)" offset="0.625"/><stop stop-opacity="1" stop-color="rgb(0%, 96.882629%, 99.295044%)" offset="0.6875"/><stop stop-opacity="1" stop-color="rgb(0%, 97.25647%, 99.468994%)" offset="0.75"/><stop stop-opacity="1" stop-color="rgb(0%, 97.631836%, 99.642944%)" offset="0.8125"/><stop stop-opacity="1" stop-color="rgb(0%, 98.007202%, 99.816895%)" offset="0.875"/><stop stop-opacity="1" stop-color="rgb(0%, 98.297119%, 99.951172%)" offset="1"/></linearGradient><clipPath id="02387b8de9"><path d="M 29 30 L 34 30 L 34 34 L 29 34 Z M 29 30 " clip-rule="nonzero"/></clipPath><clipPath id="07be015a1d"><path d="M 29.898438 31.542969 C 30.359375 31.695312 30.714844 31.953125 31.023438 32.359375 C 31.277344 32.71875 31.433594 33.179688 31.378906 33.636719 C 31.535156 33.230469 31.839844 32.820312 32.199219 32.566406 C 32.605469 32.257812 33.066406 32.15625 33.527344 32.15625 C 33.066406 32.003906 32.660156 31.746094 32.402344 31.339844 C 32.148438 30.980469 31.992188 30.519531 31.992188 30.0625 C 31.890625 30.46875 31.585938 30.878906 31.226562 31.132812 C 30.820312 31.441406 30.359375 31.542969 29.898438 31.542969 Z M 29.898438 31.542969 " clip-rule="nonzero"/></clipPath><linearGradient x1="455.656231" gradientTransform="matrix(0.051335, 0, 0, -0.051335, 8.321687, 146.019369)" y1="2189.169293" x2="455.657487" gradientUnits="userSpaceOnUse" y2="2258.863697" id="cb5fddc5ca"><stop stop-opacity="1" stop-color="rgb(0%, 51.350403%, 78.16925%)" offset="0"/><stop stop-opacity="1" stop-color="rgb(0%, 51.486206%, 78.231812%)" offset="0.0000182802"/><stop stop-opacity="1" stop-color="rgb(0%, 51.623535%, 78.295898%)" offset="0.03125"/><stop stop-opacity="1" stop-color="rgb(0%, 51.759338%, 78.358459%)" offset="0.0625"/><stop stop-opacity="1" stop-color="rgb(0%, 52.032471%, 78.485107%)" offset="0.09375"/><stop stop-opacity="1" stop-color="rgb(0%, 52.305603%, 78.613281%)" offset="0.125"/><stop stop-opacity="1" stop-color="rgb(0%, 52.578735%, 78.739929%)" offset="0.15625"/><stop stop-opacity="1" stop-color="rgb(0%, 52.851868%, 78.866577%)" offset="0.1875"/><stop stop-opacity="1" stop-color="rgb(0%, 53.125%, 78.993225%)" offset="0.21875"/><stop stop-opacity="1" stop-color="rgb(0%, 53.398132%, 79.119873%)" offset="0.25"/><stop stop-opacity="1" stop-color="rgb(0%, 53.671265%, 79.246521%)" offset="0.28125"/><stop stop-opacity="1" stop-color="rgb(0%, 53.945923%, 79.373169%)" offset="0.3125"/><stop stop-opacity="1" stop-color="rgb(0%, 54.219055%, 79.499817%)" offset="0.34375"/><stop stop-opacity="1" stop-color="rgb(0%, 54.492188%, 79.626465%)" offset="0.375"/><stop stop-opacity="1" stop-color="rgb(0%, 54.76532%, 79.753113%)" offset="0.40625"/><stop stop-opacity="1" stop-color="rgb(0%, 55.038452%, 79.879761%)" offset="0.4375"/><stop stop-opacity="1" stop-color="rgb(0%, 55.311584%, 80.006409%)" offset="0.46875"/><stop stop-opacity="1" stop-color="rgb(0%, 55.584717%, 80.134583%)" offset="0.5"/><stop stop-opacity="1" stop-color="rgb(0%, 55.857849%, 80.26123%)" offset="0.53125"/><stop stop-opacity="1" stop-color="rgb(0%, 56.130981%, 80.387878%)" offset="0.5625"/><stop stop-opacity="1" stop-color="rgb(0%, 56.404114%, 80.514526%)" offset="0.59375"/><stop stop-opacity="1" stop-color="rgb(0%, 56.677246%, 80.641174%)" offset="0.625"/><stop stop-opacity="1" stop-color="rgb(0%, 56.950378%, 80.767822%)" offset="0.65625"/><stop stop-opacity="1" stop-color="rgb(0%, 57.223511%, 80.89447%)" offset="0.6875"/><stop stop-opacity="1" stop-color="rgb(0%, 57.496643%, 81.021118%)" offset="0.71875"/><stop stop-opacity="1" stop-color="rgb(0%, 57.769775%, 81.147766%)" offset="0.75"/><stop stop-opacity="1" stop-color="rgb(0%, 58.044434%, 81.274414%)" offset="0.78125"/><stop stop-opacity="1" stop-color="rgb(0%, 58.317566%, 81.401062%)" offset="0.8125"/><stop stop-opacity="1" stop-color="rgb(0%, 58.590698%, 81.52771%)" offset="0.84375"/><stop stop-opacity="1" stop-color="rgb(0%, 58.863831%, 81.655884%)" offset="0.875"/><stop stop-opacity="1" stop-color="rgb(0%, 59.136963%, 81.782532%)" offset="0.90625"/><stop stop-opacity="1" stop-color="rgb(0%, 59.410095%, 81.90918%)" offset="0.9375"/><stop stop-opacity="1" stop-color="rgb(0%, 59.683228%, 82.035828%)" offset="0.96875"/><stop stop-opacity="1" stop-color="rgb(0%, 59.95636%, 82.162476%)" offset="0.999982"/><stop stop-opacity="1" stop-color="rgb(0%, 60.093689%, 82.226562%)" offset="1"/></linearGradient><clipPath id="72996bfc60"><path d="M 35 22 L 39 22 L 39 26 L 35 26 Z M 35 22 " clip-rule="nonzero"/></clipPath><clipPath id="4226693127"><path d="M 35.316406 23.824219 C 35.621094 23.925781 35.929688 24.132812 36.132812 24.4375 C 36.339844 24.746094 36.441406 25.101562 36.441406 25.410156 C 36.542969 25.101562 36.746094 24.796875 37.054688 24.59375 C 37.308594 24.386719 37.667969 24.285156 38.023438 24.285156 C 37.71875 24.183594 37.410156 23.980469 37.207031 23.722656 C 37.003906 23.417969 36.902344 23.058594 36.902344 22.699219 C 36.796875 23.058594 36.59375 23.367188 36.285156 23.570312 C 36.03125 23.773438 35.671875 23.875 35.316406 23.824219 Z M 35.316406 23.824219 " clip-rule="nonzero"/></clipPath><linearGradient x1="552.23102" gradientTransform="matrix(0.051335, 0, 0, -0.051335, 8.321687, 146.019369)" y1="2349.463444" x2="552.23102" gradientUnits="userSpaceOnUse" y2="2402.230849" id="e5cf8eef2c"><stop stop-opacity="1" stop-color="rgb(0%, 65.083313%, 84.541321%)" offset="0"/><stop stop-opacity="1" stop-color="rgb(0%, 65.187073%, 84.588623%)" offset="0.03125"/><stop stop-opacity="1" stop-color="rgb(0%, 65.393066%, 84.684753%)" offset="0.0625"/><stop stop-opacity="1" stop-color="rgb(0%, 65.600586%, 84.780884%)" offset="0.09375"/><stop stop-opacity="1" stop-color="rgb(0%, 65.80658%, 84.877014%)" offset="0.125"/><stop stop-opacity="1" stop-color="rgb(0%, 66.014099%, 84.973145%)" offset="0.15625"/><stop stop-opacity="1" stop-color="rgb(0%, 66.220093%, 85.069275%)" offset="0.1875"/><stop stop-opacity="1" stop-color="rgb(0%, 66.427612%, 85.163879%)" offset="0.21875"/><stop stop-opacity="1" stop-color="rgb(0%, 66.635132%, 85.26001%)" offset="0.25"/><stop stop-opacity="1" stop-color="rgb(0%, 66.841125%, 85.35614%)" offset="0.28125"/><stop stop-opacity="1" stop-color="rgb(0%, 67.048645%, 85.452271%)" offset="0.3125"/><stop stop-opacity="1" stop-color="rgb(0%, 67.254639%, 85.548401%)" offset="0.34375"/><stop stop-opacity="1" stop-color="rgb(0%, 67.462158%, 85.644531%)" offset="0.375"/><stop stop-opacity="1" stop-color="rgb(0%, 67.668152%, 85.740662%)" offset="0.40625"/><stop stop-opacity="1" stop-color="rgb(0%, 67.875671%, 85.836792%)" offset="0.4375"/><stop stop-opacity="1" stop-color="rgb(0%, 68.083191%, 85.932922%)" offset="0.46875"/><stop stop-opacity="1" stop-color="rgb(0%, 68.289185%, 86.029053%)" offset="0.5"/><stop stop-opacity="1" stop-color="rgb(0%, 68.496704%, 86.125183%)" offset="0.53125"/><stop stop-opacity="1" stop-color="rgb(0%, 68.702698%, 86.219788%)" offset="0.5625"/><stop stop-opacity="1" stop-color="rgb(0%, 68.910217%, 86.315918%)" offset="0.59375"/><stop stop-opacity="1" stop-color="rgb(0%, 69.117737%, 86.412048%)" offset="0.625"/><stop stop-opacity="1" stop-color="rgb(0%, 69.32373%, 86.508179%)" offset="0.65625"/><stop stop-opacity="1" stop-color="rgb(0%, 69.53125%, 86.604309%)" offset="0.6875"/><stop stop-opacity="1" stop-color="rgb(0%, 69.737244%, 86.700439%)" offset="0.71875"/><stop stop-opacity="1" stop-color="rgb(0%, 69.944763%, 86.79657%)" offset="0.75"/><stop stop-opacity="1" stop-color="rgb(0%, 70.150757%, 86.8927%)" offset="0.78125"/><stop stop-opacity="1" stop-color="rgb(0%, 70.358276%, 86.988831%)" offset="0.8125"/><stop stop-opacity="1" stop-color="rgb(0%, 70.565796%, 87.084961%)" offset="0.84375"/><stop stop-opacity="1" stop-color="rgb(0%, 70.77179%, 87.179565%)" offset="0.875"/><stop stop-opacity="1" stop-color="rgb(0%, 70.979309%, 87.275696%)" offset="0.90625"/><stop stop-opacity="1" stop-color="rgb(0%, 71.185303%, 87.371826%)" offset="0.9375"/><stop stop-opacity="1" stop-color="rgb(0%, 71.392822%, 87.467957%)" offset="0.96875"/><stop stop-opacity="1" stop-color="rgb(0%, 71.598816%, 87.564087%)" offset="1"/></linearGradient><clipPath id="42c738e8d6"><path d="M 38 28 L 41 28 L 41 31 L 38 31 Z M 38 28 " clip-rule="nonzero"/></clipPath><clipPath id="653894eac2"><path d="M 38.230469 29.34375 C 38.484375 29.394531 38.6875 29.550781 38.84375 29.753906 C 38.996094 30.007812 39.046875 30.265625 39.046875 30.519531 C 39.148438 30.265625 39.300781 30.0625 39.507812 29.90625 C 39.710938 29.753906 39.96875 29.652344 40.273438 29.652344 C 40.019531 29.601562 39.761719 29.449219 39.609375 29.191406 C 39.457031 28.988281 39.40625 28.730469 39.40625 28.476562 C 39.300781 28.730469 39.148438 28.9375 38.945312 29.089844 C 38.742188 29.242188 38.484375 29.34375 38.230469 29.34375 Z M 38.230469 29.34375 " clip-rule="nonzero"/></clipPath><linearGradient x1="602.508635" gradientTransform="matrix(0.051335, 0, 0, -0.051335, 8.321687, 146.019369)" y1="2249.901947" x2="602.509285" gradientUnits="userSpaceOnUse" y2="2289.727379" id="86b294d9c9"><stop stop-opacity="1" stop-color="rgb(0%, 49.404907%, 77.267456%)" offset="0"/><stop stop-opacity="1" stop-color="rgb(0%, 49.560547%, 77.339172%)" offset="0.0000163239"/><stop stop-opacity="1" stop-color="rgb(0%, 49.716187%, 77.412415%)" offset="0.0625"/><stop stop-opacity="1" stop-color="rgb(0%, 49.871826%, 77.484131%)" offset="0.125"/><stop stop-opacity="1" stop-color="rgb(0%, 50.184631%, 77.627563%)" offset="0.1875"/><stop stop-opacity="1" stop-color="rgb(0%, 50.497437%, 77.772522%)" offset="0.25"/><stop stop-opacity="1" stop-color="rgb(0%, 50.808716%, 77.91748%)" offset="0.3125"/><stop stop-opacity="1" stop-color="rgb(0%, 51.121521%, 78.062439%)" offset="0.375"/><stop stop-opacity="1" stop-color="rgb(0%, 51.434326%, 78.207397%)" offset="0.4375"/><stop stop-opacity="1" stop-color="rgb(0%, 51.745605%, 78.352356%)" offset="0.5"/><stop stop-opacity="1" stop-color="rgb(0%, 52.058411%, 78.497314%)" offset="0.5625"/><stop stop-opacity="1" stop-color="rgb(0%, 52.371216%, 78.642273%)" offset="0.625"/><stop stop-opacity="1" stop-color="rgb(0%, 52.682495%, 78.787231%)" offset="0.6875"/><stop stop-opacity="1" stop-color="rgb(0%, 52.9953%, 78.93219%)" offset="0.75"/><stop stop-opacity="1" stop-color="rgb(0%, 53.308105%, 79.077148%)" offset="0.8125"/><stop stop-opacity="1" stop-color="rgb(0%, 53.619385%, 79.222107%)" offset="0.875"/><stop stop-opacity="1" stop-color="rgb(0%, 53.93219%, 79.367065%)" offset="0.9375"/><stop stop-opacity="1" stop-color="rgb(0%, 54.243469%, 79.512024%)" offset="0.999984"/><stop stop-opacity="1" stop-color="rgb(0%, 54.400635%, 79.585266%)" offset="1"/></linearGradient><clipPath id="9a50f403db"><path d="M 24 29 L 27 29 L 27 32 L 24 32 Z M 24 29 " clip-rule="nonzero"/></clipPath><clipPath id="6c9a177e9a"><path d="M 24.019531 29.90625 C 24.226562 29.957031 24.480469 30.164062 24.632812 30.367188 C 24.789062 30.570312 24.839844 30.828125 24.839844 31.082031 C 24.941406 30.828125 25.09375 30.621094 25.296875 30.46875 C 25.503906 30.316406 25.757812 30.265625 26.066406 30.265625 C 25.808594 30.164062 25.554688 30.007812 25.402344 29.804688 C 25.246094 29.601562 25.195312 29.292969 25.195312 29.039062 C 25.09375 29.292969 24.941406 29.550781 24.734375 29.703125 C 24.53125 29.855469 24.277344 29.90625 24.019531 29.90625 Z M 24.019531 29.90625 " clip-rule="nonzero"/></clipPath><linearGradient x1="325.728" gradientTransform="matrix(0.051335, 0, 0, -0.051335, 8.321687, 146.019369)" y1="2238.949784" x2="325.728" gradientUnits="userSpaceOnUse" y2="2278.774566" id="77c7a30824"><stop stop-opacity="1" stop-color="rgb(0%, 49.049377%, 77.101135%)" offset="0"/><stop stop-opacity="1" stop-color="rgb(0%, 49.205017%, 77.172852%)" offset="0.0625"/><stop stop-opacity="1" stop-color="rgb(0%, 49.516296%, 77.31781%)" offset="0.125"/><stop stop-opacity="1" stop-color="rgb(0%, 49.829102%, 77.462769%)" offset="0.1875"/><stop stop-opacity="1" stop-color="rgb(0%, 50.141907%, 77.607727%)" offset="0.25"/><stop stop-opacity="1" stop-color="rgb(0%, 50.453186%, 77.752686%)" offset="0.3125"/><stop stop-opacity="1" stop-color="rgb(0%, 50.765991%, 77.897644%)" offset="0.375"/><stop stop-opacity="1" stop-color="rgb(0%, 51.078796%, 78.042603%)" offset="0.4375"/><stop stop-opacity="1" stop-color="rgb(0%, 51.390076%, 78.187561%)" offset="0.5"/><stop stop-opacity="1" stop-color="rgb(0%, 51.702881%, 78.33252%)" offset="0.5625"/><stop stop-opacity="1" stop-color="rgb(0%, 52.015686%, 78.477478%)" offset="0.625"/><stop stop-opacity="1" stop-color="rgb(0%, 52.326965%, 78.622437%)" offset="0.6875"/><stop stop-opacity="1" stop-color="rgb(0%, 52.639771%, 78.767395%)" offset="0.75"/><stop stop-opacity="1" stop-color="rgb(0%, 52.952576%, 78.912354%)" offset="0.8125"/><stop stop-opacity="1" stop-color="rgb(0%, 53.263855%, 79.057312%)" offset="0.875"/><stop stop-opacity="1" stop-color="rgb(0%, 53.57666%, 79.202271%)" offset="0.9375"/><stop stop-opacity="1" stop-color="rgb(0%, 53.887939%, 79.347229%)" offset="1"/></linearGradient><clipPath id="f01ae4a8b1"><path d="M 34 8 L 37 8 L 37 11 L 34 11 Z M 34 8 " clip-rule="nonzero"/></clipPath><clipPath id="e387c730ce"><path d="M 34.191406 9.15625 C 34.394531 9.257812 34.652344 9.414062 34.804688 9.617188 C 34.957031 9.820312 35.007812 10.128906 35.007812 10.382812 C 35.113281 10.128906 35.265625 9.871094 35.46875 9.71875 C 35.671875 9.566406 35.929688 9.515625 36.234375 9.515625 C 35.980469 9.464844 35.726562 9.257812 35.570312 9.054688 C 35.417969 8.851562 35.367188 8.59375 35.367188 8.339844 C 35.265625 8.59375 35.113281 8.800781 34.90625 8.953125 C 34.703125 9.105469 34.445312 9.15625 34.191406 9.15625 Z M 34.191406 9.15625 " clip-rule="nonzero"/></clipPath><clipPath id="25c35100d4"><path d="M 42 20 L 45 20 L 45 23 L 42 23 Z M 42 20 " clip-rule="nonzero"/></clipPath><clipPath id="67070e2648"><path d="M 42.164062 21.320312 C 42.421875 21.421875 42.625 21.578125 42.777344 21.78125 C 42.984375 21.984375 43.035156 22.292969 43.035156 22.546875 C 43.085938 22.292969 43.238281 22.035156 43.492188 21.882812 C 43.699219 21.730469 43.953125 21.679688 44.210938 21.679688 C 43.953125 21.628906 43.75 21.472656 43.597656 21.21875 C 43.441406 21.015625 43.339844 20.757812 43.390625 20.503906 C 43.289062 20.757812 43.136719 20.964844 42.929688 21.117188 C 42.675781 21.269531 42.421875 21.371094 42.164062 21.320312 Z M 42.164062 21.320312 " clip-rule="nonzero"/></clipPath><linearGradient x1="679.170108" gradientTransform="matrix(0.051335, 0, 0, -0.051335, 8.321687, 146.019369)" y1="2405.217004" x2="679.170825" gradientUnits="userSpaceOnUse" y2="2445.043327" id="0f59ae191d"><stop stop-opacity="1" stop-color="rgb(0%, 78.439331%, 90.737915%)" offset="0"/><stop stop-opacity="1" stop-color="rgb(0%, 78.594971%, 90.809631%)" offset="0.0000179868"/><stop stop-opacity="1" stop-color="rgb(0%, 78.752136%, 90.882874%)" offset="0.0625"/><stop stop-opacity="1" stop-color="rgb(0%, 78.907776%, 90.95459%)" offset="0.125"/><stop stop-opacity="1" stop-color="rgb(0%, 79.220581%, 91.099548%)" offset="0.1875"/><stop stop-opacity="1" stop-color="rgb(0%, 79.53186%, 91.244507%)" offset="0.25"/><stop stop-opacity="1" stop-color="rgb(0%, 79.844666%, 91.389465%)" offset="0.3125"/><stop stop-opacity="1" stop-color="rgb(0%, 80.157471%, 91.534424%)" offset="0.375"/><stop stop-opacity="1" stop-color="rgb(0%, 80.46875%, 91.679382%)" offset="0.4375"/><stop stop-opacity="1" stop-color="rgb(0%, 80.781555%, 91.824341%)" offset="0.5"/><stop stop-opacity="1" stop-color="rgb(0%, 81.09436%, 91.969299%)" offset="0.5625"/><stop stop-opacity="1" stop-color="rgb(0%, 81.40564%, 92.114258%)" offset="0.625"/><stop stop-opacity="1" stop-color="rgb(0%, 81.718445%, 92.259216%)" offset="0.6875"/><stop stop-opacity="1" stop-color="rgb(0%, 82.03125%, 92.404175%)" offset="0.75"/><stop stop-opacity="1" stop-color="rgb(0%, 82.342529%, 92.549133%)" offset="0.8125"/><stop stop-opacity="1" stop-color="rgb(0%, 82.655334%, 92.694092%)" offset="0.875"/><stop stop-opacity="1" stop-color="rgb(0%, 82.96814%, 92.83905%)" offset="0.9375"/><stop stop-opacity="1" stop-color="rgb(0%, 83.279419%, 92.984009%)" offset="0.999982"/><stop stop-opacity="1" stop-color="rgb(0%, 83.436584%, 93.057251%)" offset="1"/></linearGradient></defs><g fill="#e8f0f9" fill-opacity="1"><g transform="translate(57.481588, 18.794629)"><g><path d="M 13.515625 -14.441406 L 11.902344 -14.441406 C 11.742188 -14.441406 11.410156 -14.390625 11.410156 -13.847656 L 11.410156 -5.207031 C 11.410156 -4.679688 11.375 -4.222656 11.324219 -3.890625 C 11.269531 -3.558594 11.164062 -3.296875 11.042969 -3.101562 C 10.902344 -2.925781 10.746094 -2.804688 10.515625 -2.71875 C 10.289062 -2.648438 9.972656 -2.59375 9.605469 -2.59375 L 5.820312 -2.59375 C 5.453125 -2.59375 5.136719 -2.648438 4.90625 -2.71875 C 4.679688 -2.804688 4.523438 -2.925781 4.382812 -3.101562 C 4.257812 -3.296875 4.152344 -3.558594 4.085938 -3.890625 C 4.03125 -4.222656 3.996094 -4.679688 3.996094 -5.207031 L 3.996094 -13.847656 C 3.996094 -14.390625 3.664062 -14.441406 3.503906 -14.441406 L 1.910156 -14.441406 C 1.753906 -14.441406 1.402344 -14.390625 1.402344 -13.847656 L 1.402344 -5.484375 C 1.402344 -4.503906 1.472656 -3.664062 1.628906 -2.980469 C 1.789062 -2.277344 2.050781 -1.699219 2.402344 -1.261719 C 2.734375 -0.804688 3.207031 -0.492188 3.75 -0.28125 C 4.292969 -0.0859375 4.960938 0 5.730469 0 L 9.675781 0 C 10.445312 0 11.113281 -0.0859375 11.65625 -0.28125 C 12.21875 -0.492188 12.671875 -0.804688 13.023438 -1.261719 C 13.375 -1.699219 13.621094 -2.277344 13.777344 -2.980469 C 13.933594 -3.664062 14.003906 -4.503906 14.003906 -5.484375 L 14.003906 -13.847656 C 14.003906 -14.390625 13.671875 -14.441406 13.515625 -14.441406 Z M 13.515625 -14.441406 "/></g></g></g><g fill="#e8f0f9" fill-opacity="1"><g transform="translate(73.763533, 18.794629)"><g><path d="M 13.8125 -14.441406 L 12.253906 -14.441406 C 12.09375 -14.441406 11.761719 -14.390625 11.761719 -13.828125 L 11.761719 -3.296875 C 11.761719 -3.277344 11.761719 -3.277344 11.761719 -3.261719 L 11.671875 -3.261719 C 11.65625 -3.261719 11.640625 -3.261719 11.621094 -3.3125 L 6.082031 -13.164062 C 5.941406 -13.425781 5.820312 -13.636719 5.695312 -13.792969 C 5.574219 -13.96875 5.453125 -14.109375 5.328125 -14.199219 C 5.1875 -14.304688 5.03125 -14.375 4.835938 -14.40625 C 4.664062 -14.425781 4.453125 -14.441406 4.222656 -14.441406 L 2.910156 -14.441406 C 2.402344 -14.441406 2.015625 -14.269531 1.769531 -13.953125 C 1.523438 -13.621094 1.402344 -13.039062 1.402344 -12.183594 L 1.402344 -0.597656 C 1.402344 -0.0507812 1.753906 0.015625 1.910156 0.015625 L 3.46875 0.015625 C 3.628906 0.015625 3.960938 -0.0507812 3.960938 -0.597656 L 3.960938 -11.128906 C 3.960938 -11.148438 3.960938 -11.164062 3.960938 -11.164062 L 4.050781 -11.164062 C 4.050781 -11.164062 4.066406 -11.164062 4.101562 -11.113281 L 9.65625 -1.261719 C 9.796875 -0.980469 9.9375 -0.769531 10.0625 -0.613281 C 10.183594 -0.4375 10.304688 -0.316406 10.445312 -0.226562 C 10.585938 -0.121094 10.746094 -0.0703125 10.921875 -0.0351562 C 11.078125 0 11.269531 0.015625 11.515625 0.015625 L 12.796875 0.015625 C 13.304688 0.015625 13.691406 -0.15625 13.933594 -0.492188 C 14.179688 -0.804688 14.304688 -1.382812 14.304688 -2.242188 L 14.304688 -13.828125 C 14.304688 -14.390625 13.953125 -14.441406 13.8125 -14.441406 Z M 13.8125 -14.441406 "/></g></g></g><g fill="#e8f0f9" fill-opacity="1"><g transform="translate(90.343424, 18.794629)"><g><path d="M 3.503906 -14.441406 L 1.894531 -14.441406 C 1.753906 -14.441406 1.402344 -14.375 1.402344 -13.828125 L 1.402344 -0.597656 C 1.402344 -0.0507812 1.753906 0.015625 1.894531 0.015625 L 3.503906 0.015625 C 3.644531 0.015625 3.996094 -0.0507812 3.996094 -0.597656 L 3.996094 -13.828125 C 3.996094 -14.375 3.644531 -14.441406 3.503906 -14.441406 Z M 3.503906 -14.441406 "/></g></g></g><g fill="#e8f0f9" fill-opacity="1"><g transform="translate(96.617844, 18.794629)"><g><path d="M 15.371094 -14.636719 L 13.445312 -14.636719 C 13.214844 -14.636719 13.039062 -14.511719 12.9375 -14.269531 L 8.640625 -3.417969 C 8.640625 -3.382812 8.625 -3.382812 8.625 -3.382812 L 8.554688 -3.367188 C 8.554688 -3.367188 8.554688 -3.382812 8.535156 -3.417969 L 4.171875 -14.269531 C 4.101562 -14.511719 3.925781 -14.636719 3.679688 -14.636719 L 1.789062 -14.636719 C 1.523438 -14.636719 1.4375 -14.460938 1.417969 -14.390625 C 1.382812 -14.269531 1.402344 -14.128906 1.472656 -13.953125 L 6.378906 -1.824219 C 6.433594 -1.71875 6.46875 -1.628906 6.503906 -1.558594 C 6.765625 -0.632812 7.625 0.015625 8.589844 0.015625 C 9.027344 0.015625 9.449219 -0.121094 9.796875 -0.367188 C 9.902344 -0.421875 9.992188 -0.472656 10.0625 -0.542969 C 10.324219 -0.769531 10.570312 -1.191406 10.832031 -1.824219 L 15.707031 -13.953125 C 15.773438 -14.128906 15.792969 -14.269531 15.757812 -14.390625 C 15.722656 -14.476562 15.636719 -14.636719 15.371094 -14.636719 Z M 15.371094 -14.636719 "/></g></g></g><g fill="#e8f0f9" fill-opacity="1"><g transform="translate(114.669946, 18.794629)"><g><path d="M 11.9375 -3.136719 L 5.765625 -3.136719 C 5.398438 -3.136719 5.101562 -3.191406 4.855469 -3.261719 C 4.628906 -3.347656 4.46875 -3.46875 4.328125 -3.644531 C 4.1875 -3.839844 4.085938 -4.101562 4.03125 -4.433594 C 4.015625 -4.523438 4.015625 -4.644531 3.996094 -4.734375 C 3.996094 -4.734375 4.015625 -5.996094 4.03125 -5.996094 L 11.867188 -5.996094 C 12.007812 -5.996094 12.355469 -6.066406 12.355469 -6.609375 L 12.355469 -7.992188 C 12.355469 -8.535156 12.007812 -8.589844 11.867188 -8.589844 L 2.820312 -8.570312 C 2.3125 -8.535156 1.875 -8.273438 1.628906 -7.835938 C 1.542969 -7.695312 1.472656 -7.554688 1.4375 -7.398438 L 1.402344 -5.1875 L 1.402344 -5.101562 C 1.417969 -4.277344 1.507812 -3.574219 1.628906 -2.996094 C 1.789062 -2.296875 2.050781 -1.71875 2.382812 -1.28125 C 2.734375 -0.824219 3.191406 -0.507812 3.75 -0.316406 C 4.292969 -0.105469 4.941406 -0.015625 5.714844 -0.015625 L 11.9375 -0.015625 C 12.09375 -0.015625 12.445312 -0.0703125 12.445312 -0.613281 L 12.445312 -2.542969 C 12.445312 -3.085938 12.09375 -3.136719 11.9375 -3.136719 Z M 11.953125 -14.476562 L 1.875 -14.476562 C 1.734375 -14.476562 1.402344 -14.40625 1.402344 -13.847656 L 1.402344 -12.480469 C 1.402344 -11.9375 1.734375 -11.882812 1.875 -11.882812 L 11.953125 -11.867188 C 12.09375 -11.867188 12.445312 -11.9375 12.445312 -12.480469 L 12.445312 -13.863281 C 12.445312 -14.40625 12.09375 -14.476562 11.953125 -14.476562 Z M 11.953125 -14.476562 "/></g></g></g><g fill="#e8f0f9" fill-opacity="1"><g transform="translate(129.392049, 18.794629)"><g><path d="M 13.355469 -10.253906 C 13.355469 -10.238281 13.355469 -10.21875 13.355469 -10.203125 C 13.355469 -10.183594 13.355469 -10.167969 13.355469 -10.148438 Z M 13.691406 -0.753906 L 10.621094 -6.011719 C 11.480469 -6.117188 12.148438 -6.484375 12.585938 -7.082031 C 13.074219 -7.800781 13.339844 -8.835938 13.355469 -10.203125 C 13.339844 -11.570312 13.074219 -12.601562 12.585938 -13.320312 C 12.058594 -14.074219 11.183594 -14.441406 9.992188 -14.441406 L 1.910156 -14.441406 C 1.753906 -14.441406 1.402344 -14.390625 1.402344 -13.828125 L 1.402344 -12.445312 C 1.402344 -11.902344 1.753906 -11.847656 1.910156 -11.847656 L 9.535156 -11.847656 C 9.992188 -11.847656 10.289062 -11.726562 10.464844 -11.464844 C 10.65625 -11.199219 10.746094 -10.78125 10.746094 -10.203125 C 10.746094 -9.621094 10.65625 -9.203125 10.464844 -8.9375 C 10.289062 -8.675781 9.992188 -8.554688 9.535156 -8.554688 L 1.910156 -8.554688 C 1.753906 -8.554688 1.402344 -8.5 1.402344 -7.957031 L 1.402344 -0.597656 C 1.402344 -0.0507812 1.753906 0.015625 1.910156 0.015625 L 3.503906 0.015625 C 3.664062 0.015625 3.996094 -0.0507812 3.996094 -0.597656 L 3.996094 -5.960938 L 7.695312 -5.960938 L 10.867188 -0.332031 C 10.9375 -0.226562 10.988281 -0.140625 11.058594 -0.0859375 C 11.148438 -0.015625 11.269531 0.015625 11.429688 0.015625 L 13.355469 0.015625 C 13.566406 0.015625 13.722656 -0.121094 13.757812 -0.332031 C 13.777344 -0.507812 13.757812 -0.648438 13.691406 -0.753906 Z M 13.691406 -0.753906 "/></g></g></g><g fill="#e8f0f9" fill-opacity="1"><g transform="translate(145.446151, 18.794629)"><g><path d="M 9.867188 -8.625 L 4.609375 -8.625 C 4.347656 -8.625 4.015625 -8.730469 4.015625 -9.589844 L 4.015625 -10.886719 C 4.015625 -11.199219 4.066406 -11.445312 4.152344 -11.621094 C 4.222656 -11.726562 4.328125 -11.847656 4.628906 -11.847656 L 11.761719 -11.847656 C 11.902344 -11.847656 12.253906 -11.902344 12.253906 -12.445312 L 12.253906 -13.847656 C 12.253906 -14.390625 11.902344 -14.441406 11.761719 -14.441406 L 4.207031 -14.441406 C 3.242188 -14.441406 2.542969 -14.128906 2.085938 -13.480469 C 1.628906 -12.847656 1.402344 -12.007812 1.402344 -10.988281 L 1.402344 -9.65625 C 1.402344 -8.449219 1.648438 -7.46875 2.085938 -6.855469 C 2.628906 -6.136719 3.433594 -6.03125 4.171875 -6.03125 L 9.429688 -6.03125 C 9.691406 -6.03125 10.042969 -5.925781 10.042969 -5.066406 L 10.042969 -3.558594 C 10.042969 -3.242188 9.992188 -2.996094 9.886719 -2.820312 C 9.816406 -2.71875 9.710938 -2.59375 9.414062 -2.59375 L 1.929688 -2.59375 C 1.769531 -2.59375 1.417969 -2.542969 1.417969 -2 L 1.417969 -0.597656 C 1.417969 -0.0507812 1.769531 0 1.929688 0 L 9.832031 0 C 10.796875 0 11.515625 -0.332031 11.972656 -0.980469 C 12.410156 -1.613281 12.636719 -2.4375 12.636719 -3.453125 L 12.636719 -4.996094 C 12.636719 -6.136719 12.410156 -7.027344 11.953125 -7.660156 C 11.480469 -8.289062 10.78125 -8.625 9.867188 -8.625 Z M 9.867188 -8.625 "/></g></g></g><g fill="#e8f0f9" fill-opacity="1"><g transform="translate(160.361043, 18.794629)"><g><path d="M 3.503906 -14.441406 L 1.894531 -14.441406 C 1.753906 -14.441406 1.402344 -14.375 1.402344 -13.828125 L 1.402344 -0.597656 C 1.402344 -0.0507812 1.753906 0.015625 1.894531 0.015625 L 3.503906 0.015625 C 3.644531 0.015625 3.996094 -0.0507812 3.996094 -0.597656 L 3.996094 -13.828125 C 3.996094 -14.375 3.644531 -14.441406 3.503906 -14.441406 Z M 3.503906 -14.441406 "/></g></g></g><g fill="#e8f0f9" fill-opacity="1"><g transform="translate(166.635463, 18.794629)"><g><path d="M 13.339844 -13.164062 C 12.988281 -13.601562 12.53125 -13.933594 11.972656 -14.144531 C 11.429688 -14.339844 10.761719 -14.441406 9.992188 -14.441406 L 5.714844 -14.441406 C 4.941406 -14.441406 4.292969 -14.339844 3.75 -14.144531 C 3.191406 -13.933594 2.734375 -13.601562 2.382812 -13.164062 C 2.050781 -12.726562 1.789062 -12.148438 1.628906 -11.445312 C 1.472656 -10.761719 1.402344 -9.9375 1.402344 -8.957031 L 1.402344 -5.484375 C 1.402344 -4.503906 1.472656 -3.664062 1.628906 -2.980469 C 1.789062 -2.277344 2.050781 -1.699219 2.382812 -1.261719 C 2.734375 -0.804688 3.191406 -0.472656 3.75 -0.28125 C 4.277344 -0.0859375 4.941406 0.015625 5.714844 0.015625 L 9.992188 0.015625 C 10.761719 0.015625 11.429688 -0.0859375 11.972656 -0.28125 C 12.53125 -0.472656 12.988281 -0.804688 13.339844 -1.246094 C 13.691406 -1.699219 13.933594 -2.277344 14.09375 -2.980469 C 14.234375 -3.664062 14.320312 -4.503906 14.320312 -5.484375 L 14.320312 -8.957031 C 14.320312 -9.921875 14.234375 -10.761719 14.09375 -11.445312 C 13.933594 -12.148438 13.691406 -12.726562 13.339844 -13.164062 Z M 11.707031 -9.253906 L 11.707031 -5.171875 C 11.707031 -4.664062 11.691406 -4.222656 11.621094 -3.875 C 11.570312 -3.558594 11.464844 -3.277344 11.324219 -3.101562 C 11.199219 -2.910156 11.023438 -2.785156 10.796875 -2.71875 C 10.570312 -2.628906 10.273438 -2.59375 9.902344 -2.59375 L 5.800781 -2.59375 C 5.433594 -2.59375 5.136719 -2.628906 4.90625 -2.71875 C 4.679688 -2.785156 4.503906 -2.910156 4.382812 -3.101562 C 4.242188 -3.277344 4.152344 -3.558594 4.085938 -3.875 C 4.03125 -4.222656 3.996094 -4.664062 3.996094 -5.171875 L 3.996094 -9.253906 C 3.996094 -9.761719 4.03125 -10.203125 4.085938 -10.550781 C 4.152344 -10.886719 4.242188 -11.148438 4.382812 -11.339844 C 4.503906 -11.515625 4.679688 -11.640625 4.90625 -11.726562 C 5.136719 -11.796875 5.433594 -11.847656 5.800781 -11.847656 L 9.902344 -11.847656 C 10.273438 -11.847656 10.570312 -11.796875 10.796875 -11.726562 C 11.023438 -11.640625 11.199219 -11.515625 11.324219 -11.339844 C 11.464844 -11.148438 11.570312 -10.886719 11.621094 -10.550781 C 11.691406 -10.203125 11.707031 -9.761719 11.707031 -9.253906 Z M 11.707031 -9.253906 "/></g></g></g><g fill="#e8f0f9" fill-opacity="1"><g transform="translate(183.232881, 18.794629)"><g><path d="M 13.8125 -14.441406 L 12.253906 -14.441406 C 12.09375 -14.441406 11.761719 -14.390625 11.761719 -13.828125 L 11.761719 -3.296875 C 11.761719 -3.277344 11.761719 -3.277344 11.761719 -3.261719 L 11.671875 -3.261719 C 11.65625 -3.261719 11.640625 -3.261719 11.621094 -3.3125 L 6.082031 -13.164062 C 5.941406 -13.425781 5.820312 -13.636719 5.695312 -13.792969 C 5.574219 -13.96875 5.453125 -14.109375 5.328125 -14.199219 C 5.1875 -14.304688 5.03125 -14.375 4.835938 -14.40625 C 4.664062 -14.425781 4.453125 -14.441406 4.222656 -14.441406 L 2.910156 -14.441406 C 2.402344 -14.441406 2.015625 -14.269531 1.769531 -13.953125 C 1.523438 -13.621094 1.402344 -13.039062 1.402344 -12.183594 L 1.402344 -0.597656 C 1.402344 -0.0507812 1.753906 0.015625 1.910156 0.015625 L 3.46875 0.015625 C 3.628906 0.015625 3.960938 -0.0507812 3.960938 -0.597656 L 3.960938 -11.128906 C 3.960938 -11.148438 3.960938 -11.164062 3.960938 -11.164062 L 4.050781 -11.164062 C 4.050781 -11.164062 4.066406 -11.164062 4.101562 -11.113281 L 9.65625 -1.261719 C 9.796875 -0.980469 9.9375 -0.769531 10.0625 -0.613281 C 10.183594 -0.4375 10.304688 -0.316406 10.445312 -0.226562 C 10.585938 -0.121094 10.746094 -0.0703125 10.921875 -0.0351562 C 11.078125 0 11.269531 0.015625 11.515625 0.015625 L 12.796875 0.015625 C 13.304688 0.015625 13.691406 -0.15625 13.933594 -0.492188 C 14.179688 -0.804688 14.304688 -1.382812 14.304688 -2.242188 L 14.304688 -13.828125 C 14.304688 -14.390625 13.953125 -14.441406 13.8125 -14.441406 Z M 13.8125 -14.441406 "/></g></g></g><g clip-path="url(#70129686ed)"><g clip-path="url(#5ac210d8af)"><path fill="url(#6ad1cb9cca)" d="M 2.371094 41.023438 L 2.371094 0.734375 L 50.238281 0.734375 L 50.238281 41.023438 Z M 2.371094 41.023438 " fill-rule="nonzero"/></g></g><g clip-path="url(#e7797610bb)"><g clip-path="url(#96524c0874)"><path fill="url(#ba04d24325)" d="M 18.246094 15.339844 L 18.246094 11.761719 L 21.824219 11.761719 L 21.824219 15.339844 Z M 18.246094 15.339844 " fill-rule="nonzero"/></g></g><g clip-path="url(#905cac1e6d)"><g clip-path="url(#f623e8a0f8)"><path fill="#00fbff" d="M 27.546875 7.980469 L 27.546875 5.015625 L 30.511719 5.015625 L 30.511719 7.980469 Z M 27.546875 7.980469 " fill-opacity="1" fill-rule="nonzero"/></g></g><g clip-path="url(#73ba3bac2f)"><g clip-path="url(#d8e8aed411)"><path fill="url(#f978e72d79)" d="M 25.808594 12.988281 L 25.808594 10.535156 L 28.261719 10.535156 L 28.261719 12.988281 Z M 25.808594 12.988281 " fill-rule="nonzero"/></g></g><g clip-path="url(#02387b8de9)"><g clip-path="url(#07be015a1d)"><path fill="url(#cb5fddc5ca)" d="M 29.898438 33.636719 L 29.898438 30.0625 L 33.527344 30.0625 L 33.527344 33.636719 Z M 29.898438 33.636719 " fill-rule="nonzero"/></g></g><g clip-path="url(#72996bfc60)"><g clip-path="url(#4226693127)"><path fill="url(#e5cf8eef2c)" d="M 35.316406 25.410156 L 35.316406 22.699219 L 38.023438 22.699219 L 38.023438 25.410156 Z M 35.316406 25.410156 " fill-rule="nonzero"/></g></g><g clip-path="url(#42c738e8d6)"><g clip-path="url(#653894eac2)"><path fill="url(#86b294d9c9)" d="M 38.230469 30.519531 L 38.230469 28.476562 L 40.273438 28.476562 L 40.273438 30.519531 Z M 38.230469 30.519531 " fill-rule="nonzero"/></g></g><g clip-path="url(#9a50f403db)"><g clip-path="url(#6c9a177e9a)"><path fill="url(#77c7a30824)" d="M 24.019531 31.082031 L 24.019531 29.039062 L 26.066406 29.039062 L 26.066406 31.082031 Z M 24.019531 31.082031 " fill-rule="nonzero"/></g></g><g clip-path="url(#f01ae4a8b1)"><g clip-path="url(#e387c730ce)"><path fill="#00fbff" d="M 34.191406 10.382812 L 34.191406 8.339844 L 36.234375 8.339844 L 36.234375 10.382812 Z M 34.191406 10.382812 " fill-opacity="1" fill-rule="nonzero"/></g></g><g clip-path="url(#25c35100d4)"><g clip-path="url(#67070e2648)"><path fill="url(#0f59ae191d)" d="M 42.164062 22.546875 L 42.164062 20.503906 L 44.210938 20.503906 L 44.210938 22.546875 Z M 42.164062 22.546875 " fill-rule="nonzero"/></g></g><g fill="#00c6e8" fill-opacity="1"><g transform="translate(57.343715, 36.224724)"><g><path d="M 8.046875 -9.550781 C 8.019531 -9.613281 7.996094 -9.695312 7.96875 -9.746094 C 7.761719 -10.425781 7.132812 -10.910156 6.414062 -10.910156 C 6.085938 -10.910156 5.773438 -10.816406 5.511719 -10.632812 C 5.433594 -10.59375 5.371094 -10.542969 5.316406 -10.503906 C 5.121094 -10.332031 4.925781 -10.019531 4.742188 -9.550781 L 1.097656 -0.496094 C 1.058594 -0.378906 1.046875 -0.261719 1.070312 -0.183594 C 1.085938 -0.105469 1.148438 0.0117188 1.359375 0.0117188 L 2.796875 0.0117188 C 2.964844 0.0117188 3.097656 -0.0898438 3.160156 -0.261719 L 3.90625 -2.128906 L 6.765625 -2.128906 C 6.910156 -2.128906 7.042969 -2.195312 7.105469 -2.3125 C 7.183594 -2.417969 7.199219 -2.558594 7.160156 -2.691406 L 6.6875 -3.855469 C 6.625 -4.011719 6.480469 -4.113281 6.308594 -4.113281 L 4.691406 -4.113281 L 6.363281 -8.347656 C 6.375 -8.375 6.386719 -8.386719 6.386719 -8.386719 L 6.441406 -8.386719 C 6.441406 -8.386719 6.441406 -8.386719 6.453125 -8.359375 L 9.695312 -0.273438 C 9.757812 -0.0898438 9.890625 0.0117188 10.070312 0.0117188 L 11.46875 0.0117188 C 11.679688 0.0117188 11.730469 -0.117188 11.757812 -0.183594 C 11.785156 -0.261719 11.769531 -0.378906 11.71875 -0.496094 Z M 8.046875 -9.550781 "/></g></g></g><g fill="#00c6e8" fill-opacity="1"><g transform="translate(70.824664, 36.224724)"><g><path d="M 9.027344 -10.765625 L 4.273438 -10.765625 C 3.695312 -10.765625 3.199219 -10.6875 2.796875 -10.542969 C 2.378906 -10.386719 2.039062 -10.136719 1.789062 -9.8125 C 1.527344 -9.484375 1.332031 -9.054688 1.214844 -8.53125 C 1.097656 -8.019531 1.046875 -7.394531 1.046875 -6.675781 L 1.046875 -4.089844 C 1.046875 -3.355469 1.097656 -2.730469 1.214844 -2.207031 C 1.332031 -1.699219 1.527344 -1.265625 1.789062 -0.925781 C 2.050781 -0.601562 2.390625 -0.351562 2.796875 -0.210938 C 3.199219 -0.0664062 3.695312 0.0117188 4.273438 0.0117188 L 9.027344 0.0117188 C 9.132812 0.0117188 9.394531 -0.0390625 9.394531 -0.445312 L 9.394531 -1.476562 C 9.394531 -1.882812 9.132812 -1.933594 9.027344 -1.933594 L 4.335938 -1.933594 C 4.0625 -1.933594 3.828125 -1.960938 3.65625 -2.023438 C 3.488281 -2.078125 3.371094 -2.167969 3.265625 -2.3125 C 3.160156 -2.441406 3.097656 -2.640625 3.042969 -2.886719 C 3.003906 -3.148438 2.980469 -3.476562 2.980469 -3.867188 L 2.980469 -6.910156 C 2.980469 -7.300781 3.003906 -7.628906 3.042969 -7.878906 C 3.097656 -8.125 3.160156 -8.308594 3.265625 -8.453125 C 3.371094 -8.597656 3.488281 -8.6875 3.65625 -8.738281 C 3.828125 -8.804688 4.0625 -8.832031 4.335938 -8.832031 L 9.027344 -8.832031 C 9.132812 -8.832031 9.394531 -8.882812 9.394531 -9.300781 L 9.394531 -10.308594 C 9.394531 -10.710938 9.132812 -10.765625 9.027344 -10.765625 Z M 9.027344 -10.765625 "/></g></g></g><g fill="#00c6e8" fill-opacity="1"><g transform="translate(81.915098, 36.224724)"><g><path d="M 8.046875 -9.550781 C 8.019531 -9.613281 7.996094 -9.695312 7.96875 -9.746094 C 7.761719 -10.425781 7.132812 -10.910156 6.414062 -10.910156 C 6.085938 -10.910156 5.773438 -10.816406 5.511719 -10.632812 C 5.433594 -10.59375 5.371094 -10.542969 5.316406 -10.503906 C 5.121094 -10.332031 4.925781 -10.019531 4.742188 -9.550781 L 1.097656 -0.496094 C 1.058594 -0.378906 1.046875 -0.261719 1.070312 -0.183594 C 1.085938 -0.105469 1.148438 0.0117188 1.359375 0.0117188 L 2.796875 0.0117188 C 2.964844 0.0117188 3.097656 -0.0898438 3.160156 -0.261719 L 3.90625 -2.128906 L 6.765625 -2.128906 C 6.910156 -2.128906 7.042969 -2.195312 7.105469 -2.3125 C 7.183594 -2.417969 7.199219 -2.558594 7.160156 -2.691406 L 6.6875 -3.855469 C 6.625 -4.011719 6.480469 -4.113281 6.308594 -4.113281 L 4.691406 -4.113281 L 6.363281 -8.347656 C 6.375 -8.375 6.386719 -8.386719 6.386719 -8.386719 L 6.441406 -8.386719 C 6.441406 -8.386719 6.441406 -8.386719 6.453125 -8.359375 L 9.695312 -0.273438 C 9.757812 -0.0898438 9.890625 0.0117188 10.070312 0.0117188 L 11.46875 0.0117188 C 11.679688 0.0117188 11.730469 -0.117188 11.757812 -0.183594 C 11.785156 -0.261719 11.769531 -0.378906 11.71875 -0.496094 Z M 8.046875 -9.550781 "/></g></g></g><g fill="#00c6e8" fill-opacity="1"><g transform="translate(95.396048, 36.224724)"><g><path d="M 9.96875 -8.335938 C 9.835938 -8.882812 9.613281 -9.339844 9.339844 -9.707031 C 9.054688 -10.058594 8.675781 -10.332031 8.230469 -10.503906 C 7.785156 -10.671875 7.261719 -10.765625 6.648438 -10.765625 L 2.089844 -10.765625 L 2.089844 -10.75 C 1.710938 -10.726562 1.386719 -10.515625 1.1875 -10.203125 C 1.136719 -10.097656 1.085938 -9.980469 1.058594 -9.875 L 1.046875 -0.953125 C 1.070312 -0.808594 1.125 -0.667969 1.1875 -0.546875 C 1.398438 -0.195312 1.777344 0.0117188 2.183594 0.0117188 L 6.648438 0.0117188 C 7.261719 0.0117188 7.800781 -0.078125 8.230469 -0.25 C 8.675781 -0.417969 9.054688 -0.691406 9.339844 -1.058594 C 9.613281 -1.410156 9.835938 -1.867188 9.96875 -2.417969 C 10.097656 -2.964844 10.164062 -3.617188 10.164062 -4.351562 L 10.164062 -6.402344 C 10.164062 -7.132812 10.097656 -7.785156 9.96875 -8.335938 Z M 2.964844 -2 L 2.964844 -8.753906 C 2.964844 -8.804688 2.980469 -8.832031 2.992188 -8.832031 L 6.609375 -8.832031 C 6.910156 -8.832031 7.171875 -8.792969 7.382812 -8.714844 C 7.589844 -8.636719 7.746094 -8.53125 7.863281 -8.359375 C 7.996094 -8.191406 8.085938 -7.96875 8.140625 -7.695312 C 8.191406 -7.394531 8.230469 -7.027344 8.230469 -6.597656 L 8.230469 -4.15625 C 8.230469 -3.722656 8.191406 -3.355469 8.140625 -3.070312 C 8.085938 -2.78125 7.996094 -2.558594 7.863281 -2.390625 C 7.746094 -2.234375 7.589844 -2.117188 7.382812 -2.039062 C 7.171875 -1.960938 6.910156 -1.933594 6.609375 -1.933594 L 2.980469 -1.933594 C 2.980469 -1.933594 2.964844 -1.945312 2.964844 -2 Z M 2.964844 -2 "/></g></g></g><g fill="#00c6e8" fill-opacity="1"><g transform="translate(107.257192, 36.224724)"><g><path d="M 8.898438 -2.339844 L 4.296875 -2.339844 C 4.023438 -2.339844 3.800781 -2.378906 3.617188 -2.429688 C 3.449219 -2.496094 3.332031 -2.585938 3.226562 -2.71875 C 3.121094 -2.859375 3.042969 -3.058594 3.003906 -3.304688 C 2.992188 -3.371094 2.992188 -3.460938 2.980469 -3.527344 C 2.980469 -3.527344 2.992188 -4.46875 3.003906 -4.46875 L 8.84375 -4.46875 C 8.949219 -4.46875 9.210938 -4.519531 9.210938 -4.925781 L 9.210938 -5.957031 C 9.210938 -6.363281 8.949219 -6.402344 8.84375 -6.402344 L 2.101562 -6.386719 C 1.722656 -6.363281 1.398438 -6.167969 1.214844 -5.839844 C 1.148438 -5.734375 1.097656 -5.628906 1.070312 -5.511719 L 1.046875 -3.867188 L 1.046875 -3.800781 C 1.058594 -3.1875 1.125 -2.664062 1.214844 -2.234375 C 1.332031 -1.710938 1.527344 -1.28125 1.777344 -0.953125 C 2.039062 -0.613281 2.378906 -0.378906 2.796875 -0.234375 C 3.199219 -0.078125 3.683594 -0.0117188 4.257812 -0.0117188 L 8.898438 -0.0117188 C 9.015625 -0.0117188 9.273438 -0.0507812 9.273438 -0.457031 L 9.273438 -1.894531 C 9.273438 -2.300781 9.015625 -2.339844 8.898438 -2.339844 Z M 8.910156 -10.789062 L 1.398438 -10.789062 C 1.292969 -10.789062 1.046875 -10.738281 1.046875 -10.320312 L 1.046875 -9.300781 C 1.046875 -8.898438 1.292969 -8.855469 1.398438 -8.855469 L 8.910156 -8.84375 C 9.015625 -8.84375 9.273438 -8.898438 9.273438 -9.300781 L 9.273438 -10.332031 C 9.273438 -10.738281 9.015625 -10.789062 8.910156 -10.789062 Z M 8.910156 -10.789062 "/></g></g></g><g fill="#00c6e8" fill-opacity="1"><g transform="translate(118.23006, 36.224724)"><g><path d="M 11.953125 -10.765625 L 10.777344 -10.765625 C 10.59375 -10.765625 10.449219 -10.75 10.320312 -10.710938 C 10.191406 -10.671875 10.070312 -10.609375 9.96875 -10.515625 C 9.875 -10.410156 9.785156 -10.292969 9.707031 -10.136719 C 9.628906 -9.980469 9.5625 -9.785156 9.484375 -9.535156 L 7.171875 -3.761719 C 7.160156 -3.710938 7.144531 -3.710938 7.132812 -3.710938 L 7.003906 -3.710938 C 7.003906 -3.710938 6.976562 -3.710938 6.964844 -3.761719 L 4.664062 -9.535156 C 4.585938 -9.785156 4.507812 -9.980469 4.441406 -10.136719 C 4.363281 -10.292969 4.273438 -10.410156 4.179688 -10.515625 C 4.074219 -10.609375 3.945312 -10.671875 3.816406 -10.710938 C 3.683594 -10.75 3.527344 -10.765625 3.355469 -10.765625 L 2.15625 -10.765625 C 1.710938 -10.765625 1.410156 -10.621094 1.253906 -10.347656 C 1.109375 -10.097656 1.046875 -9.679688 1.046875 -9.078125 L 1.046875 -0.445312 C 1.046875 -0.0390625 1.304688 0.0117188 1.425781 0.0117188 L 2.546875 0.0117188 C 2.664062 0.0117188 2.914062 -0.0390625 2.914062 -0.445312 L 2.914062 -8.296875 C 2.914062 -8.308594 2.914062 -8.320312 2.914062 -8.320312 L 2.980469 -8.320312 C 2.992188 -8.320312 3.003906 -8.320312 3.019531 -8.28125 L 5.25 -2.757812 C 5.34375 -2.480469 5.433594 -2.246094 5.527344 -2.050781 C 5.628906 -1.855469 5.734375 -1.699219 5.839844 -1.566406 C 5.96875 -1.4375 6.101562 -1.332031 6.257812 -1.28125 C 6.414062 -1.226562 6.585938 -1.203125 6.78125 -1.203125 L 7.316406 -1.203125 C 7.511719 -1.203125 7.695312 -1.226562 7.839844 -1.28125 C 7.996094 -1.332031 8.140625 -1.4375 8.257812 -1.566406 C 8.359375 -1.699219 8.476562 -1.855469 8.570312 -2.050781 C 8.660156 -2.246094 8.753906 -2.480469 8.84375 -2.757812 L 11.089844 -8.296875 C 11.089844 -8.320312 11.105469 -8.320312 11.117188 -8.320312 L 11.183594 -8.320312 C 11.183594 -8.320312 11.183594 -8.308594 11.183594 -8.296875 L 11.183594 -0.445312 C 11.183594 -0.0390625 11.445312 0.0117188 11.546875 0.0117188 L 12.671875 0.0117188 C 12.789062 0.0117188 13.050781 -0.0390625 13.050781 -0.445312 L 13.050781 -9.078125 C 13.050781 -9.679688 12.984375 -10.097656 12.839844 -10.347656 C 12.683594 -10.621094 12.382812 -10.765625 11.953125 -10.765625 Z M 11.953125 -10.765625 "/></g></g></g><g fill="#00c6e8" fill-opacity="1"><g transform="translate(132.978115, 36.224724)"><g><path d="M 10.710938 -10.765625 L 9.261719 -10.765625 C 9.144531 -10.765625 8.988281 -10.726562 8.882812 -10.53125 L 6.007812 -5.289062 L 3.160156 -10.515625 C 3.058594 -10.726562 2.898438 -10.765625 2.78125 -10.765625 L 1.292969 -10.765625 C 1.175781 -10.765625 1.085938 -10.699219 1.058594 -10.582031 C 1.03125 -10.492188 1.046875 -10.386719 1.097656 -10.292969 L 5.015625 -3.304688 L 5.015625 -0.445312 C 5.015625 -0.0390625 5.277344 0 5.382812 0 L 6.585938 0 C 6.6875 0 6.949219 -0.0390625 6.949219 -0.445312 L 6.949219 -3.304688 L 10.910156 -10.292969 C 10.960938 -10.386719 10.972656 -10.492188 10.949219 -10.59375 C 10.910156 -10.699219 10.816406 -10.765625 10.710938 -10.765625 Z M 10.710938 -10.765625 "/></g></g></g></svg>